<?xml version="1.0" standalone="no"?>
<!DOCTYPE svg PUBLIC "-//W3C//DTD SVG 20010904//EN"
 "http://www.w3.org/TR/2001/REC-SVG-20010904/DTD/svg10.dtd">
<svg version="1.0" xmlns="http://www.w3.org/2000/svg"
 width="608.000000pt" height="608.000000pt" viewBox="0 0 608.000000 608.000000"
 preserveAspectRatio="xMidYMid meet">
<metadata>
Created by potrace 1.14, written by Peter Selinger 2001-2017
</metadata>
<g transform="translate(0.000000,608.000000) scale(0.100000,-0.100000)"
fill="#000000" stroke="none">
<path d="M4511 6059 c-99 -21 -242 -72 -301 -108 -19 -11 -42 -24 -50 -28 -8
-3 -47 -30 -86 -59 -85 -64 -186 -169 -243 -253 -45 -66 -114 -191 -106 -191
3 0 -3 -17 -13 -37 -21 -42 -51 -152 -60 -223 -15 -111 -7 -315 17 -410 5 -19
10 -39 11 -45 6 -24 -2 -35 -42 -58 -24 -13 -95 -54 -158 -92 -63 -37 -135
-79 -160 -93 -25 -14 -57 -33 -72 -43 -14 -11 -28 -19 -31 -19 -3 0 -58 -31
-123 -70 -64 -38 -119 -70 -121 -70 -2 0 -29 -16 -59 -35 -30 -19 -56 -35 -58
-35 -3 0 -178 -102 -206 -120 -8 -6 -22 -13 -30 -17 -8 -4 -69 -39 -135 -78
-66 -40 -141 -83 -166 -97 -83 -47 -94 -53 -99 -59 -3 -3 -20 -13 -39 -22
l-34 -17 -36 36 c-65 64 -176 142 -267 187 -172 87 -313 118 -509 112 -127 -3
-147 -6 -230 -26 -61 -15 -70 -17 -72 -19 -2 -2 -6 -3 -10 -4 -47 -9 -224 -97
-278 -139 -5 -4 -28 -21 -50 -38 -51 -39 -132 -117 -165 -158 -14 -17 -31 -38
-37 -46 -7 -7 -13 -18 -13 -23 0 -6 -4 -12 -8 -14 -9 -3 -57 -83 -84 -138 -37
-76 -70 -176 -93 -285 -14 -64 -13 -290 1 -368 43 -236 162 -452 338 -614 153
-141 363 -242 556 -269 42 -6 136 -16 145 -16 225 4 394 49 570 151 68 39 152
102 208 155 l38 36 252 -146 c138 -81 266 -155 282 -164 17 -10 55 -32 85 -50
52 -31 69 -41 158 -91 20 -12 51 -30 67 -40 17 -10 48 -29 70 -41 22 -12 48
-27 57 -33 56 -34 134 -79 138 -80 3 0 19 -9 35 -19 17 -11 47 -30 67 -43 21
-12 40 -23 43 -23 4 0 103 -57 155 -90 8 -5 40 -24 70 -41 30 -18 56 -33 57
-34 1 0 -4 -25 -13 -55 -23 -85 -28 -135 -28 -270 -1 -153 6 -198 46 -330 49
-158 141 -305 272 -435 79 -78 190 -166 206 -161 3 0 19 -8 35 -19 43 -30 159
-80 205 -90 8 -2 35 -8 60 -15 81 -20 123 -24 265 -24 112 0 159 5 235 23 52
13 99 27 104 32 6 5 16 9 24 9 21 0 168 76 237 123 78 53 220 196 273 274 134
198 195 407 187 643 -5 135 -6 151 -25 220 -7 25 -14 52 -15 60 -9 39 -54 146
-85 200 -8 14 -15 27 -15 30 -1 6 -37 63 -45 70 -3 3 -14 18 -23 33 -47 73
-203 218 -297 275 -56 33 -171 88 -215 101 -22 7 -47 15 -55 18 -8 3 -21 7
-29 9 -7 1 -34 7 -60 13 -25 6 -75 13 -111 16 -36 2 -67 5 -70 6 -3 1 -7 1
-10 1 -3 0 -46 -3 -95 -6 -50 -3 -105 -10 -122 -15 -18 -5 -33 -8 -33 -6 0 3
-11 0 -25 -5 -14 -5 -36 -12 -49 -14 -35 -6 -154 -55 -216 -89 -61 -33 -175
-117 -233 -172 l-38 -36 -32 18 c-18 10 -34 21 -37 24 -3 4 -27 19 -55 33 -27
15 -63 36 -80 46 -16 10 -41 25 -55 33 -14 7 -42 23 -62 35 -21 12 -53 30 -70
41 -18 10 -112 65 -208 121 -241 141 -234 137 -356 208 -60 35 -116 67 -124
72 -72 45 -224 130 -231 130 -5 0 -9 5 -9 10 0 6 -4 10 -9 10 -15 0 -185 101
-198 118 -7 9 -9 21 -4 31 13 25 27 105 35 196 3 28 6 52 7 55 1 3 1 7 1 10
-8 144 -16 209 -31 273 l-19 78 22 14 c55 34 158 95 162 95 3 0 21 11 42 24
69 44 232 136 238 135 4 0 10 3 13 8 5 7 596 356 731 431 25 14 57 33 72 43
14 11 29 19 32 19 3 0 34 17 68 38 35 21 84 50 110 65 l47 27 53 -47 c29 -27
71 -62 93 -78 22 -16 42 -32 45 -35 18 -18 195 -105 245 -120 22 -6 47 -14 55
-17 19 -8 17 -7 65 -17 51 -11 76 -14 150 -21 91 -9 135 -7 260 9 84 10 247
66 335 114 155 85 291 208 383 347 41 60 107 183 107 197 0 5 7 24 14 41 40
86 60 210 61 362 0 127 -8 205 -26 252 -6 15 -10 28 -9 28 13 0 -64 197 -94
240 -12 17 -19 30 -16 31 3 0 -23 39 -57 86 -68 93 -183 206 -266 261 -87 58
-227 124 -302 144 -121 31 -144 33 -290 38 -102 3 -150 -1 -224 -16z m398
-492 c99 -35 156 -71 231 -146 74 -75 79 -83 121 -171 76 -158 73 -370 -7
-520 -29 -54 -45 -80 -61 -97 -6 -7 -20 -23 -30 -36 -47 -59 -203 -158 -272
-172 -9 -2 -36 -8 -60 -14 -55 -12 -200 -8 -261 8 -150 40 -281 139 -362 273
-55 93 -79 175 -84 285 -12 300 191 554 489 613 76 14 220 3 296 -23z m-3449
-1938 c30 -6 65 -12 77 -15 38 -7 156 -72 203 -111 97 -79 175 -206 204 -331
23 -101 14 -241 -21 -333 -30 -77 -82 -162 -128 -211 -34 -37 -129 -108 -143
-108 -7 0 -12 -4 -12 -10 0 -5 -8 -10 -18 -10 -10 0 -22 -4 -28 -9 -19 -19
-122 -42 -204 -46 -75 -4 -122 2 -226 28 -53 13 -159 82 -220 142 -119 118
-174 242 -179 404 -2 54 3 118 11 152 72 310 377 514 684 458z m3436 -1978
c80 -24 161 -70 219 -122 51 -45 57 -53 75 -79 8 -12 21 -28 28 -36 16 -17 71
-133 78 -165 19 -91 22 -123 19 -194 -4 -128 -40 -227 -119 -336 -40 -56 -160
-159 -183 -159 -7 0 -13 -4 -13 -10 0 -5 -7 -10 -15 -10 -9 0 -34 -9 -55 -20
-22 -11 -40 -18 -40 -15 0 2 -12 0 -27 -6 -45 -17 -196 -19 -269 -3 -326 68
-536 406 -454 730 42 165 153 305 305 386 126 68 309 84 451 39z"/>
</g>
</svg>
